<?xml version="1.0" encoding="UTF-8"?>
<svg version="1.1" xmlns="http://www.w3.org/2000/svg" viewBox="-16 -16 282 295">
  <path d="M0 0 C12.39068549 10.70188095 20.07978047 23.60447027 21.76953125 40.08984375 C22.33363406 55.43344026 17.08107216 69.55436158 7.26171875 81.21484375 C0.3600923 88.52244822 -8.20388056 93.41133736 -17.55078125 96.96484375 C-18.42992188 97.32320313 -19.3090625 97.6815625 -20.21484375 98.05078125 C-24.5712495 99.24445683 -28.61604752 99.30709017 -33.11328125 99.27734375 C-34.4434729 99.26888428 -34.4434729 99.26888428 -35.80053711 99.26025391 C-52.87730929 98.94691864 -65.64374682 93.21789457 -77.55078125 80.96484375 C-89.8206234 67.3316858 -92.61362652 53.03946951 -91.74169922 35.18847656 C-90.65978647 22.58737508 -82.54275909 10.52084691 -73.55078125 1.96484375 C-52.29419947 -15.49982635 -21.96445531 -17.52447353 0 0 Z " fill="#9FD77F" transform="translate(133.55078125,12.03515625)" />
  <path d="M0 0 C19.21229371 15.50136167 33.52800573 36.66907188 37.5546875 61.39453125 C37.93036452 67.14570847 37.91022275 72.92326355 37.9597168 78.68457031 C37.98124304 80.56398962 38.01528197 82.44331013 38.06225586 84.32226562 C38.57188256 104.93947661 38.57188256 104.93947661 31.5546875 113.39453125 C22.52775753 122.33436541 12.76512958 123.77545814 0.45860291 123.76779175 L-120.22441406 123.76779175 C-132.53094073 123.77545814 -142.29356868 122.33436541 -151.32049865 113.39453125 C-158.33769371 104.93947661 -158.33769371 104.93947661 -157.82806701 84.32226562 C-157.78109312 82.44331013 -157.74705419 80.56398962 -157.72552795 78.68457031 C-157.6760339 72.92326355 -157.69617567 67.14570847 -157.32049865 61.39453125 C-153.29381688 36.66907188 -138.97810486 15.50136167 -119.76581115 0 Z" fill="#9FD77F" transform="translate(158.4453125,137.60546875)" />
  <path d="M0 0 C3.39582327 0.66822998 5.58245632 2.20920432 8.18359375 4.4296875 C11.03465175 8.7062745 10.91143351 12.41142391 10.18359375 17.4296875 C8.33257507 21.76021028 5.00594492 24.6605174 1.47363281 27.66088867 C-2.69792011 31.27617506 -6.58966288 35.10715378 -10.45703125 39.04296875 C-11.87096348 40.46953017 -13.28502982 41.89595868 -14.69921875 43.32226562 C-16.89547599 45.54344669 -19.09007905 47.76621763 -21.28222656 49.99145508 C-23.41945907 52.15883291 -25.56282373 54.31999433 -27.70703125 56.48046875 C-28.36125061 57.14814774 -29.01546997 57.81582672 -29.68951416 58.5037384 C-30.30405457 59.12165756 -30.91859497 59.73957672 -31.55175781 60.3762207 C-32.35495453 61.19060356 -32.35495453 61.19060356 -33.17437744 62.0214386 C-36.96281251 65.27050433 -40.57239819 66.06530174 -45.46484375 65.921875 C-50.03734747 64.96483934 -52.6816435 61.70439502 -55.81640625 58.4296875 C-57.27159504 56.96578808 -58.73352502 55.50881969 -60.19580078 54.05200195 C-61.18150308 53.06517332 -62.16180787 52.0729193 -63.13623047 51.07495117 C-65.71448131 48.4101822 -65.71448131 48.4101822 -68.81640625 46.4296875 C-68.81640625 45.7696875 -68.81640625 45.1096875 -68.81640625 44.4296875 C-69.68265625 44.15125 -69.68265625 44.15125 -70.56640625 43.8671875 C-73.82911273 41.78268058 -75.37888781 38.928138 -76.81640625 35.4296875 C-77.47415804 31.40095779 -77.04228198 29.84110401 -75.06640625 26.2421875 C-70.61067269 20.67252055 -70.61067269 20.67252055 -66.73828125 20.1484375 C-61.75761149 19.95053009 -58.97254788 20.49441247 -54.81640625 23.4296875 C-52.45343362 25.70101027 -50.23641912 28.07341721 -48 30.46875 C-45.71057823 32.52472447 -44.85058032 33.27243371 -41.81640625 33.4296875 C-39.41807061 31.71122533 -39.41807061 31.71122533 -37.11328125 29.1796875 C-35.76556641 27.80103516 -35.76556641 27.80103516 -34.390625 26.39453125 C-33.44862349 25.40681737 -32.50722053 24.41853231 -31.56640625 23.4296875 C-29.73024623 21.53154739 -27.89174188 19.63567197 -26.05078125 17.7421875 C-25.16592041 16.83090088 -24.28105957 15.91961426 -23.36938477 14.98071289 C-20.51591105 12.12942219 -17.55607068 9.46279586 -14.4753418 6.86108398 C-12.80220198 5.45766325 -12.80220198 5.45766325 -11.31958008 3.90258789 C-7.71114114 0.36997447 -4.85902665 -0.27859512 0 0 Z " fill="#9FD780" transform="translate(240.81640625,60.5703125)" />
</svg>